<svg width="79" height="79" viewBox="0 0 79 79" fill="none" xmlns="http://www.w3.org/2000/svg">
<path d="M70.1682 51.8253C71.285 54.3186 71.6181 57.0923 71.1233 59.7791C70.6286 62.4659 69.3294 64.9389 67.3978 66.8707C65.4663 68.8025 62.9934 70.1019 60.3069 70.5967C57.6205 71.0914 54.8471 70.7583 52.3541 69.6414C51.3787 72.19 49.653 74.3827 47.405 75.9294C45.157 77.4762 42.4926 78.3043 39.764 78.3043C37.0354 78.3043 34.371 77.4762 32.123 75.9294C29.875 74.3827 28.1493 72.19 27.1739 69.6414C24.6809 70.7609 21.9066 71.096 19.2188 70.6022C16.531 70.1084 14.0568 68.809 12.1245 66.8764C10.1921 64.9439 8.8929 62.4694 8.39914 59.7813C7.90538 57.0933 8.24041 54.3186 9.35981 51.8253C6.81105 50.8508 4.61812 49.1255 3.07106 46.8776C1.52399 44.6296 0.695679 41.965 0.695679 39.236C0.695679 36.5071 1.52399 33.8424 3.07106 31.5944C4.61812 29.3465 6.81105 27.6212 9.35981 26.6467C8.24041 24.1535 7.90538 21.3788 8.39914 18.6907C8.8929 16.0026 10.1921 13.5282 12.1245 11.5956C14.0568 9.66302 16.531 8.36365 19.2188 7.86983C21.9066 7.37602 24.6809 7.71109 27.1739 8.83061C28.1493 6.28198 29.875 4.08937 32.123 2.54259C34.371 0.995815 37.0354 0.167694 39.764 0.167694C42.4926 0.167694 45.157 0.995815 47.405 2.54259C49.653 4.08937 51.3787 6.28198 52.3541 8.83061C54.8471 7.7137 57.6205 7.38057 60.3069 7.87535C62.9934 8.37014 65.4663 9.66948 67.3978 11.6013C69.3294 13.5331 70.6286 16.0062 71.1233 18.693C71.6181 21.3798 71.285 24.1535 70.1682 26.6467C72.7169 27.6212 74.9099 29.3465 76.4569 31.5944C78.004 33.8424 78.8323 36.5071 78.8323 39.236C78.8323 41.965 78.004 44.6296 76.4569 46.8776C74.9099 49.1255 72.7169 50.8508 70.1682 51.8253Z" fill="#DEB8FC"/>
<path d="M54.3591 42.0891C53.8212 45.4666 52.129 48.5531 49.5708 50.8226C47.0126 53.0922 43.7467 54.4044 40.3296 54.5357C36.9124 54.6669 33.5555 53.6092 30.8308 51.5426C28.106 49.476 26.1821 46.5284 25.3867 43.2021C24.5914 39.8758 24.9739 36.3767 26.469 33.3008C27.9641 30.2249 30.4794 27.7627 33.5862 26.3337C36.693 24.9046 40.1992 24.5972 43.5072 25.4637C46.8153 26.3303 49.7206 28.3172 51.7281 31.0859C52.8708 32.6557 53.6916 34.436 54.1431 36.3245C54.5947 38.213 54.668 40.1721 54.3591 42.0891Z" fill="#F1E4D9"/>
</svg>
